# xmcd
#
# Track frame offsets:
# 150
# 35890
# 73213
# 100927
# 116387
# 150225
# 169300
# 193325
# 212250
# 236059
# 257950
# 260264
# 293905
#
# Disc length: 4042 seconds
#
# Revision: 0
# Processed by: cddbd v1.5.1PL0 Copyright (c) Steve Scherf et al.
# Submitted via: Audion 2.6.0 (http://www.panic.com/audion/)
#
DISCID=c00fc80d
DTITLE=ELKIN and NELSON - Edición Especial 33 Aniversario
DYEAR=1900
DGENRE=
TTITLE0=Samba Samba
TTITLE1=Chévere
TTITLE2=A Caballo
TTITLE3=Jíbaro Parte I
TTITLE4=Jíbaro Parte II
TTITLE5=Moliendo Café
TTITLE6=Cuando Calienta el Sol
TTITLE7=I Love You
TTITLE8=Light me Fire
TTITLE9=Ain't no Sunshine
TTITLE10=Túmbalo
TTITLE11=Abran Paso Parte I
TTITLE12=Abran Paso Parte II
EXTD=
EXTT0=
EXTT1=
EXTT2=
EXTT3=
EXTT4=
EXTT5=
EXTT6=
EXTT7=
EXTT8=
EXTT9=
EXTT10=
EXTT11=
EXTT12=
PLAYORDER=
